<?xml version="1.0" encoding="UTF-8"?>
<svg xmlns="http://www.w3.org/2000/svg" xmlns:xlink="http://www.w3.org/1999/xlink" width="900px" height="200px" viewBox="0 0 900 200" version="1.1">
<g id="surface1">
<rect x="0" y="0" width="900" height="200" style="fill:rgb(18.823529%,8.235294%,20.392157%);fill-opacity:1;stroke:none;"/>
<path style="fill:none;stroke-width:3;stroke-linecap:round;stroke-linejoin:miter;stroke:rgb(67.843137%,15.686275%,92.156863%);stroke-opacity:1;stroke-miterlimit:4;" d="M -676 -182 C -454 -10 -396.8625 71.8875 -197.5 143.5 C -99 178.88125 -36.91875 170.725 -4.75 170.10625 C 99.7375 168.1 199.85625 126.86875 293.88125 84.6125 C 332.2375 67.375 369.7625 48.425 405.94375 26.98125 C 429.85 12.81875 464.8125 -6.93125 470.66875 -37.4375 C 472.9875 -49.5375 454.3 -49.675 446.89375 -47.225 C 433.38125 -42.75 420.94375 -30.68125 410.8375 -21.55625 C 391.70625 -4.28125 373.775 14.39375 357.60625 34.475 C 323.875 76.35625 289.56875 134.71875 323.44375 186.4875 C 340.73125 212.9 367.3875 232.18125 395.55625 245.6125 C 451.7375 272.40625 514.7625 284.35625 576.3375 289.7625 C 740.775 304.19375 905.3 286.3 1059.3375 226.1375 C 1139.1 194.99375 1217.8875 155.6 1283.56875 99.89375 C 1332.13125 58.70625 1386.36875 3.34375 1394.23125 -63.00625 C 1405.1625 -155.19375 1300.1875 -199.06875 1224.9375 -211.425 C 1163.53125 -221.50625 1101.1875 -215.5875 1040.86875 -201.8375 C 962.60625 -183.99375 891.8625 -154.16875 826.63125 -107.45 C 696.625 -14.35625 591.68125 120.9625 554.1625 278.375 C 538.525 344 537.5125 416.5875 559.65625 480.925 C 581.10625 543.2625 628.85 591.5 683.70625 625.85 C 748.81875 666.625 820.8625 687.9875 896.54375 699.05625 C 997.01875 713.75625 1099.3625 711.29375 1199.56875 696.0625 C 1375.7375 669.2875 1552.3 607.63125 1704.75 514.9875 C 1807.96875 452.2625 1904.05 380.8375 1984.8125 290.5625 C 2002.5125 270.76875 2016.61875 249.6875 2028.55 226.0375 C 2172.1125 -58.5 2095.5 -145.525 2095.5 -151 " transform="matrix(0.625,0,0,0.625,0,0)"/>
</g>
</svg>
